<svg width="20" height="20" viewBox="0 0 20 20" fill="none" xmlns="http://www.w3.org/2000/svg">
<rect width="20" height="20" fill="#F2F2F2"/>
<g id="home_Desktop" clip-path="url(#clip0_0_1)">
<rect width="1280" height="1076" transform="translate(-174 -611)" fill="#F7F7F7"/>
<g id="- Base branca" filter="url(#filter0_d_0_1)">
<path d="M1106 385L-34 385V-339C-34 -356.673 -19.6731 -371 -2 -371L1106 -371V385Z" fill="white"/>
</g>
<g id="Frame 8">
<g id="Menu - Favoritos">
<g id="Content">
<g id="Icon">
<path fill-rule="evenodd" clip-rule="evenodd" d="M14.9061 5.41423L5.90614 9.41423L5.09386 7.58661L14.0939 3.58661L14.9061 5.41423Z" fill="#555555"/>
<path fill-rule="evenodd" clip-rule="evenodd" d="M14.0144 16.3746L5.01436 11.3746L5.98564 9.62628L14.9856 14.6263L14.0144 16.3746Z" fill="#555555"/>
<path fill-rule="evenodd" clip-rule="evenodd" d="M16.5 7.00031C18.433 7.00031 20 5.4333 20 3.50031C20 1.56731 18.433 0.000305176 16.5 0.000305176C14.567 0.000305176 13 1.56731 13 3.50031C13 5.4333 14.567 7.00031 16.5 7.00031Z" fill="#555555"/>
<path fill-rule="evenodd" clip-rule="evenodd" d="M3.5 13.0003C5.433 13.0003 7 11.4333 7 9.50031C7 7.56731 5.433 6.00031 3.5 6.00031C1.567 6.00031 0 7.56731 0 9.50031C0 11.4333 1.567 13.0003 3.5 13.0003Z" fill="#555555"/>
<path fill-rule="evenodd" clip-rule="evenodd" d="M16.5 20.0003C18.433 20.0003 20 18.4333 20 16.5003C20 14.5673 18.433 13.0003 16.5 13.0003C14.567 13.0003 13 14.5673 13 16.5003C13 18.4333 14.567 20.0003 16.5 20.0003Z" fill="#555555"/>
</g>
</g>
</g>
</g>
</g>
<defs>
<filter id="filter0_d_0_1" x="-42" y="-379" width="1156" height="772" filterUnits="userSpaceOnUse" color-interpolation-filters="sRGB">
<feFlood flood-opacity="0" result="BackgroundImageFix"/>
<feColorMatrix in="SourceAlpha" type="matrix" values="0 0 0 0 0 0 0 0 0 0 0 0 0 0 0 0 0 0 127 0" result="hardAlpha"/>
<feOffset/>
<feGaussianBlur stdDeviation="4"/>
<feColorMatrix type="matrix" values="0 0 0 0 0 0 0 0 0 0 0 0 0 0 0 0 0 0 0.1 0"/>
<feBlend mode="normal" in2="BackgroundImageFix" result="effect1_dropShadow_0_1"/>
<feBlend mode="normal" in="SourceGraphic" in2="effect1_dropShadow_0_1" result="shape"/>
</filter>
<clipPath id="clip0_0_1">
<rect width="1280" height="1076" fill="white" transform="translate(-174 -611)"/>
</clipPath>
</defs>
</svg>
