<svg width="24" height="24" viewBox="0 0 24 24" fill="none" xmlns="http://www.w3.org/2000/svg">
<rect width="24" height="24" fill="#F2F2F2"/>
<g id="livro" clip-path="url(#clip0_0_1)">
<rect width="360" height="1241" transform="translate(-125 -1194)" fill="#F7F7F7"/>
<g id="- Base branca" filter="url(#filter0_d_0_1)">
<path d="M235 47L-125 47L-125 -821C-125 -838.673 -110.673 -853 -93 -853H235L235 47Z" fill="white"/>
</g>
<g id="- Bottom Navigation">
<g id="- Base da Bottom" filter="url(#filter1_d_0_1)">
<rect x="-125" y="-9" width="360" height="56" fill="white"/>
</g>
<g id="&#194;&#187; Adicionar">
<rect id="- base item menu" x="-24" y="-9" width="72" height="56" fill="white"/>
<g id="- Tab" clip-path="url(#clip1_0_1)">
<g id="adicionar" clip-path="url(#clip2_0_1)">
<path id="Vector" d="M12 2C6.48 2 2 6.48 2 12C2 17.52 6.48 22 12 22C17.52 22 22 17.52 22 12C22 6.48 17.52 2 12 2ZM17 13H13V17H11V13H7V11H11V7H13V11H17V13Z" fill="#9E9E9E"/>
</g>
</g>
</g>
</g>
</g>
<defs>
<filter id="filter0_d_0_1" x="-126" y="-853" width="362" height="902" filterUnits="userSpaceOnUse" color-interpolation-filters="sRGB">
<feFlood flood-opacity="0" result="BackgroundImageFix"/>
<feColorMatrix in="SourceAlpha" type="matrix" values="0 0 0 0 0 0 0 0 0 0 0 0 0 0 0 0 0 0 127 0" result="hardAlpha"/>
<feOffset dy="1"/>
<feGaussianBlur stdDeviation="0.5"/>
<feColorMatrix type="matrix" values="0 0 0 0 0 0 0 0 0 0 0 0 0 0 0 0 0 0 0.05 0"/>
<feBlend mode="normal" in2="BackgroundImageFix" result="effect1_dropShadow_0_1"/>
<feBlend mode="normal" in="SourceGraphic" in2="effect1_dropShadow_0_1" result="shape"/>
</filter>
<filter id="filter1_d_0_1" x="-133" y="-19" width="376" height="72" filterUnits="userSpaceOnUse" color-interpolation-filters="sRGB">
<feFlood flood-opacity="0" result="BackgroundImageFix"/>
<feColorMatrix in="SourceAlpha" type="matrix" values="0 0 0 0 0 0 0 0 0 0 0 0 0 0 0 0 0 0 127 0" result="hardAlpha"/>
<feOffset dy="-2"/>
<feGaussianBlur stdDeviation="4"/>
<feColorMatrix type="matrix" values="0 0 0 0 0 0 0 0 0 0 0 0 0 0 0 0 0 0 0.08 0"/>
<feBlend mode="normal" in2="BackgroundImageFix" result="effect1_dropShadow_0_1"/>
<feBlend mode="normal" in="SourceGraphic" in2="effect1_dropShadow_0_1" result="shape"/>
</filter>
<clipPath id="clip0_0_1">
<rect width="360" height="1241" fill="white" transform="translate(-125 -1194)"/>
</clipPath>
<clipPath id="clip1_0_1">
<rect width="56" height="37" fill="white" transform="translate(-16)"/>
</clipPath>
<clipPath id="clip2_0_1">
<rect width="24" height="24" fill="white"/>
</clipPath>
</defs>
</svg>
