<svg width="24" height="24" viewBox="0 0 24 24" fill="none" xmlns="http://www.w3.org/2000/svg">
<rect width="24" height="24" fill="#F2F2F2"/>
<g id="livro" clip-path="url(#clip0_0_1)">
<rect width="360" height="1241" transform="translate(-289 -1194)" fill="#F7F7F7"/>
<g id="- Base branca" filter="url(#filter0_d_0_1)">
<path d="M71 47L-289 47L-289 -821C-289 -838.673 -274.673 -853 -257 -853H71L71 47Z" fill="white"/>
</g>
<g id="- Bottom Navigation">
<g id="- Base da Bottom" filter="url(#filter1_d_0_1)">
<rect x="-289" y="-9" width="360" height="56" fill="white"/>
</g>
<g id="&#194;&#187; Favoritar">
<rect id="- base item menu" x="-24" y="-9" width="72" height="56" fill="white"/>
<g id="- Tab" clip-path="url(#clip1_0_1)">
<g id="cora&#195;&#167;&#195;&#163;o" clip-path="url(#clip2_0_1)">
<path id="Vector" d="M12 21.35L10.55 20.03C5.4 15.36 2 12.28 2 8.5C2 5.42 4.42 3 7.5 3C9.24 3 10.91 3.81 12 5.09C13.09 3.81 14.76 3 16.5 3C19.58 3 22 5.42 22 8.5C22 12.28 18.6 15.36 13.45 20.04L12 21.35Z" fill="#9E9E9E"/>
</g>
</g>
</g>
</g>
</g>
<defs>
<filter id="filter0_d_0_1" x="-290" y="-853" width="362" height="902" filterUnits="userSpaceOnUse" color-interpolation-filters="sRGB">
<feFlood flood-opacity="0" result="BackgroundImageFix"/>
<feColorMatrix in="SourceAlpha" type="matrix" values="0 0 0 0 0 0 0 0 0 0 0 0 0 0 0 0 0 0 127 0" result="hardAlpha"/>
<feOffset dy="1"/>
<feGaussianBlur stdDeviation="0.5"/>
<feColorMatrix type="matrix" values="0 0 0 0 0 0 0 0 0 0 0 0 0 0 0 0 0 0 0.05 0"/>
<feBlend mode="normal" in2="BackgroundImageFix" result="effect1_dropShadow_0_1"/>
<feBlend mode="normal" in="SourceGraphic" in2="effect1_dropShadow_0_1" result="shape"/>
</filter>
<filter id="filter1_d_0_1" x="-297" y="-19" width="376" height="72" filterUnits="userSpaceOnUse" color-interpolation-filters="sRGB">
<feFlood flood-opacity="0" result="BackgroundImageFix"/>
<feColorMatrix in="SourceAlpha" type="matrix" values="0 0 0 0 0 0 0 0 0 0 0 0 0 0 0 0 0 0 127 0" result="hardAlpha"/>
<feOffset dy="-2"/>
<feGaussianBlur stdDeviation="4"/>
<feColorMatrix type="matrix" values="0 0 0 0 0 0 0 0 0 0 0 0 0 0 0 0 0 0 0.08 0"/>
<feBlend mode="normal" in2="BackgroundImageFix" result="effect1_dropShadow_0_1"/>
<feBlend mode="normal" in="SourceGraphic" in2="effect1_dropShadow_0_1" result="shape"/>
</filter>
<clipPath id="clip0_0_1">
<rect width="360" height="1241" fill="white" transform="translate(-289 -1194)"/>
</clipPath>
<clipPath id="clip1_0_1">
<rect width="56" height="37" fill="white" transform="translate(-16)"/>
</clipPath>
<clipPath id="clip2_0_1">
<rect width="24" height="24" fill="white"/>
</clipPath>
</defs>
</svg>
