<svg width="24" height="24" viewBox="0 0 24 24" fill="none" xmlns="http://www.w3.org/2000/svg">
<rect width="24" height="24" fill="#F2F2F2"/>
<g clip-path="url(#clip0_0_1)">
<rect width="360" height="1433" transform="translate(-43 -1386)" fill="#F7F7F7"/>
<g filter="url(#filter0_d_0_1)">
<path d="M317 7L-43 7L-43 -800C-43 -817.673 -28.6731 -832 -11 -832H317L317 7Z" fill="white"/>
</g>
<g filter="url(#filter1_d_0_1)">
<rect x="-43" y="-9" width="360" height="56" fill="white"/>
</g>
<rect x="-24" y="-9" width="72" height="56" fill="white"/>
<g clip-path="url(#clip1_0_1)">
<g clip-path="url(#clip2_0_1)">
<path fill-rule="evenodd" clip-rule="evenodd" d="M14.5714 21.5C14.5714 21.7761 14.7953 22 15.0714 22H20.5C20.7761 22 21 21.7761 21 21.5V11.2451C21 10.5371 20.5824 9.56469 20.0673 9.08176L12.8993 2.36161C12.3782 1.87308 11.5445 1.88284 11.0239 2.37091L3.94263 9.00973C3.42045 9.49928 3 10.4633 3 11.1662C3 11.1662 3 11.5708 3 11.7732C3 14.2853 3 19.8134 3 21.501C3 21.7771 3.22386 22 3.5 22H8.92857C9.20471 22 9.42857 21.7761 9.42857 21.5V15C9.42857 14.7239 9.65243 14.5 9.92857 14.5H14.0714C14.3476 14.5 14.5714 14.7239 14.5714 15V21.5Z" fill="#A076F2"/>
</g>
</g>
</g>
<defs>
<filter id="filter0_d_0_1" x="-44" y="-832" width="362" height="841" filterUnits="userSpaceOnUse" color-interpolation-filters="sRGB">
<feFlood flood-opacity="0" result="BackgroundImageFix"/>
<feColorMatrix in="SourceAlpha" type="matrix" values="0 0 0 0 0 0 0 0 0 0 0 0 0 0 0 0 0 0 127 0" result="hardAlpha"/>
<feOffset dy="1"/>
<feGaussianBlur stdDeviation="0.5"/>
<feColorMatrix type="matrix" values="0 0 0 0 0 0 0 0 0 0 0 0 0 0 0 0 0 0 0.05 0"/>
<feBlend mode="normal" in2="BackgroundImageFix" result="effect1_dropShadow_0_1"/>
<feBlend mode="normal" in="SourceGraphic" in2="effect1_dropShadow_0_1" result="shape"/>
</filter>
<filter id="filter1_d_0_1" x="-51" y="-19" width="376" height="72" filterUnits="userSpaceOnUse" color-interpolation-filters="sRGB">
<feFlood flood-opacity="0" result="BackgroundImageFix"/>
<feColorMatrix in="SourceAlpha" type="matrix" values="0 0 0 0 0 0 0 0 0 0 0 0 0 0 0 0 0 0 127 0" result="hardAlpha"/>
<feOffset dy="-2"/>
<feGaussianBlur stdDeviation="4"/>
<feColorMatrix type="matrix" values="0 0 0 0 0 0 0 0 0 0 0 0 0 0 0 0 0 0 0.08 0"/>
<feBlend mode="normal" in2="BackgroundImageFix" result="effect1_dropShadow_0_1"/>
<feBlend mode="normal" in="SourceGraphic" in2="effect1_dropShadow_0_1" result="shape"/>
</filter>
<clipPath id="clip0_0_1">
<rect width="360" height="1433" fill="white" transform="translate(-43 -1386)"/>
</clipPath>
<clipPath id="clip1_0_1">
<rect width="56" height="37" fill="white" transform="translate(-16)"/>
</clipPath>
<clipPath id="clip2_0_1">
<rect width="24" height="24" fill="white"/>
</clipPath>
</defs>
</svg>
