<svg width="24" height="24" viewBox="0 0 24 24" fill="none" xmlns="http://www.w3.org/2000/svg">
<rect width="24" height="24" fill="#F2F2F2"/>
<g clip-path="url(#clip0_0_1)">
<rect width="1280" height="1320" transform="translate(-678 -24)" fill="#F7F7F7"/>
<g filter="url(#filter0_d_0_1)">
<path d="M-678 -24H462V16C462 33.6731 447.673 48 430 48H-678V-24Z" fill="white"/>
</g>
<rect x="-405.103" y="-8" width="437.103" height="40" rx="8" stroke="#E0E0E0" stroke-miterlimit="0" stroke-linejoin="bevel"/>
<path d="M16.2939 14.5786H15.3905L15.0703 14.2699C16.191 12.9663 16.8656 11.2739 16.8656 9.43282C16.8656 5.32762 13.538 2 9.43282 2C5.32762 2 2 5.32762 2 9.43282C2 13.538 5.32762 16.8656 9.43282 16.8656C11.2739 16.8656 12.9663 16.191 14.2699 15.0703L14.5786 15.3905V16.2939L20.2962 22L22 20.2962L16.2939 14.5786ZM9.43282 14.5786C6.58548 14.5786 4.28702 12.2802 4.28702 9.43282C4.28702 6.58548 6.58548 4.28702 9.43282 4.28702C12.2802 4.28702 14.5786 6.58548 14.5786 9.43282C14.5786 12.2802 12.2802 14.5786 9.43282 14.5786Z" fill="#9E9E9E"/>
</g>
<defs>
<filter id="filter0_d_0_1" x="-686" y="-32" width="1156" height="88" filterUnits="userSpaceOnUse" color-interpolation-filters="sRGB">
<feFlood flood-opacity="0" result="BackgroundImageFix"/>
<feColorMatrix in="SourceAlpha" type="matrix" values="0 0 0 0 0 0 0 0 0 0 0 0 0 0 0 0 0 0 127 0" result="hardAlpha"/>
<feOffset/>
<feGaussianBlur stdDeviation="4"/>
<feComposite in2="hardAlpha" operator="out"/>
<feColorMatrix type="matrix" values="0 0 0 0 0 0 0 0 0 0 0 0 0 0 0 0 0 0 0.1 0"/>
<feBlend mode="normal" in2="BackgroundImageFix" result="effect1_dropShadow_0_1"/>
<feBlend mode="normal" in="SourceGraphic" in2="effect1_dropShadow_0_1" result="shape"/>
</filter>
<clipPath id="clip0_0_1">
<rect width="1280" height="1320" fill="white" transform="translate(-678 -24)"/>
</clipPath>
</defs>
</svg>
